<svg width="17" height="15" fill="none" xmlns="http://www.w3.org/2000/svg"><path d="M7.615 15c.288-.753.528-1.526.719-2.313a3.136 3.136 0 01-1.549-.853 3.465 3.465 0 01-.9-1.593 3.637 3.637 0 01.016-1.86 3.455 3.455 0 01.926-1.575C5.56 5.406 3.37 2.564 3.765 0c0 0-1.15 1.83-1.165 4.646 0 0 .669 1.313.691 2.593-.92-.876-1.9-2.132-1.923-3.504 0 0-.043.114-.1.317l-.133.585a7.81 7.81 0 00-.12 1.278c-.023.453-.023.906 0 1.36a9.88 9.88 0 00.833 3.555s.234.052.603.157c.966.262 2.31.738 3.377 1.495l.099.072c.83.596 1.49 1.36 1.596 2.313" fill="#F4C874"/><path d="M11.16 9.34a2.45 2.45 0 00-.369-1.297 2.224 2.224 0 00-.98-.86 2.058 2.058 0 00-1.263-.134c-.424.09-.814.312-1.12.639a2.385 2.385 0 00-.599 1.194 2.48 2.48 0 00.124 1.348c.166.427.446.791.805 1.048.36.256.783.393 1.215.393a2.12 2.12 0 001.545-.683c.41-.437.64-1.03.641-1.648z" fill="#3FBFDD"/><path d="M10.385 15a19.052 19.052 0 01-.719-2.313 3.136 3.136 0 001.548-.853c.433-.432.744-.983.9-1.593a3.63 3.63 0 00-.015-1.86 3.455 3.455 0 00-.926-1.575c1.267-1.4 3.456-4.242 3.062-6.806 0 0 1.15 1.83 1.163 4.646 0 0-.667 1.313-.691 2.593.92-.876 1.9-2.132 1.923-3.504 0 0 .043.114.1.317l.132.581c.076.421.117.849.12 1.278.024.453.024.907 0 1.36a9.88 9.88 0 01-.827 3.555s-.235.052-.603.157c-.968.262-2.31.738-3.377 1.496l-.1.072c-.831.595-1.49 1.359-1.597 2.313" fill="#F4C874"/></svg>