<svg width="20" height="20" fill="none" xmlns="http://www.w3.org/2000/svg"><path fill-rule="evenodd" clip-rule="evenodd" d="M7.282 7.777a3.775 3.775 0 00-.866 2.42c.002.609.148 1.208.426 1.745a3.706 3.706 0 001.516 1.553 3.293 3.293 0 01.507 2.438c-.145-1.074-1.671-2.483-2.352-2.84-.68-.359 0 1.315 0 1.315s-1.148-.848-2.182-2.414l-.042-.063c-.66-1.002-1.14-1.729-2.157-2.01.985-.334 2.424.433 2.424.433-.305-1.418-1.8-2.632-1.8-2.632A9.654 9.654 0 012.064 3c.606 2.463 3.538 4.049 5.218 4.777zm6.322 2.42a3.775 3.775 0 00-.866-2.42c1.68-.728 4.613-2.314 5.219-4.777a9.655 9.655 0 01-.693 4.722s-1.495 1.214-1.8 2.632c0 0 1.44-.767 2.425-.432-1.018.28-1.497 1.007-2.158 2.009l-.042.063c-1.033 1.566-2.182 2.414-2.182 2.414s.68-1.674 0-1.316c-.68.358-2.206 1.767-2.352 2.84a3.292 3.292 0 01.508-2.437 3.706 3.706 0 001.516-1.552 3.823 3.823 0 00.425-1.746zm-3.568 2.614c1.37 0 2.479-1.14 2.479-2.548 0-1.407-1.11-2.548-2.479-2.548-1.368 0-2.478 1.14-2.478 2.548 0 1.407 1.11 2.548 2.478 2.548z" fill="#149C3A"/></svg>