<svg width="20" height="20" fill="none" xmlns="http://www.w3.org/2000/svg"><path fill-rule="evenodd" clip-rule="evenodd" d="M12.738 7.777a3.78 3.78 0 01.866 2.42 3.822 3.822 0 01-.426 1.745 3.705 3.705 0 01-1.515 1.553 3.292 3.292 0 00-.507 2.438c.145-1.074 1.67-2.483 2.351-2.84.68-.359 0 1.315 0 1.315s1.27-.88 2.002-2.104c.464-.844.87-1.72 1.213-2.623l-1.258.673c.305-1.418 1.8-2.632 1.8-2.632A9.655 9.655 0 0017.957 3c-.607 2.463-3.539 4.049-5.219 4.777zm-6.334 2.486a3.779 3.779 0 01.866-2.42c-1.676-.728-4.61-2.322-5.215-4.777a9.662 9.662 0 00.693 4.724s1.48 1.212 1.784 2.63l-1.259-.672c.346.903.754 1.779 1.221 2.621.733 1.225 2.01 2.105 2.01 2.105s-.694-1.68 0-1.314c.692.367 2.195 1.77 2.34 2.838a3.293 3.293 0 00-.507-2.437 3.707 3.707 0 01-1.51-1.555 3.823 3.823 0 01-.423-1.743zm3.632 2.548c1.37 0 2.479-1.14 2.479-2.548 0-1.407-1.11-2.548-2.479-2.548-1.368 0-2.478 1.14-2.478 2.548 0 1.407 1.11 2.548 2.478 2.548z" fill="#25ACD6"/></svg>